<svg width="320" height="62" viewBox="0 0 320 62" fill="none" xmlns="http://www.w3.org/2000/svg">
<path d="M29.344 32H2.65454C1.74066 32.0005 0.999817 32.7418 1 33.656V60.3455C1.00055 61.2593 1.74176 62.0002 2.65601 62H17.0254V50.3984H13.1289V45.8574H17.0254V42.5156C17.0254 38.6401 19.3913 36.5308 22.8483 36.5308C24.5042 36.5308 25.9271 36.6542 26.3418 36.7093V40.7598H23.9579C22.0771 40.7598 21.7129 41.6535 21.7129 42.9653V45.8574H26.21L25.624 50.3984H21.7129V62H29.344C30.2584 62.0002 30.9998 61.2592 31 60.3447C31 60.3445 31 60.3444 31 60.344V33.6545C30.9996 32.7407 30.2582 31.9998 29.344 32Z" fill="#163593"/>
<path d="M29.344 3.39346e-08H2.65454C1.74066 0.000549353 0.999817 0.74176 1 1.65601V28.3455C1.00055 29.2593 1.74176 30.0002 2.65601 30H17.0254V18.3984H13.1289V13.8574H17.0254V10.5156C17.0254 6.64014 19.3913 4.53076 22.8483 4.53076C24.5042 4.53076 25.9271 4.65417 26.3418 4.70929V8.75977H23.9579C22.0771 8.75977 21.7129 9.6535 21.7129 10.9653V13.8574H26.21L25.624 18.3984H21.7129V30H29.344C30.2584 30.0002 30.9998 29.2592 31 28.3447C31 28.3445 31 28.3444 31 28.344V1.65454C30.9996 0.740662 30.2582 -0.000183072 29.344 3.39346e-08Z" fill="white"/>
<g clip-path="url(#clip0)">
<path d="M62.9706 40.8201C62.9004 39.2261 62.6426 38.1302 62.2733 37.1806C61.8924 36.1726 61.3064 35.2702 60.5385 34.52C59.7883 33.7582 58.88 33.1662 57.8837 32.7912C56.9286 32.4219 55.8384 32.1641 54.2444 32.0939C52.6385 32.0176 52.1287 32 48.0556 32C43.9826 32 43.4727 32.0176 41.8728 32.0879C40.2788 32.1582 39.1829 32.4162 38.2335 32.7852C37.2253 33.1662 36.3229 33.7522 35.5727 34.52C34.8109 35.2702 34.2191 36.1786 33.8439 37.1749C33.4746 38.1302 33.2168 39.2201 33.1466 40.8141C33.0703 42.42 33.0527 42.9299 33.0527 47.0029C33.0527 51.076 33.0703 51.5858 33.1406 53.1858C33.2109 54.7798 33.4689 55.8757 33.8381 56.8253C34.2191 57.8332 34.8109 58.7356 35.5727 59.4858C36.3229 60.2477 37.2313 60.8397 38.2276 61.2147C39.1829 61.584 40.2728 61.8417 41.8671 61.912C43.4668 61.9825 43.9768 61.9999 48.0499 61.9999C52.123 61.9999 52.6328 61.9825 54.2327 61.912C55.8268 61.8417 56.9226 61.584 57.872 61.2147C59.8882 60.4352 61.4822 58.8412 62.2617 56.8253C62.6307 55.8699 62.8887 54.7798 62.959 53.1858C63.0293 51.5858 63.0469 51.076 63.0469 47.0029C63.0469 42.9299 63.0409 42.42 62.9706 40.8201ZM60.2691 53.0686C60.2045 54.5337 59.9584 55.3249 59.7533 55.8523C59.2492 57.1593 58.212 58.1965 56.905 58.7006C56.3776 58.9057 55.5807 59.1518 54.1213 59.2162C52.5389 59.2867 52.0644 59.3041 48.0616 59.3041C44.0588 59.3041 43.5783 59.2867 42.0017 59.2162C40.5365 59.1518 39.7454 58.9057 39.2179 58.7006C38.5675 58.4602 37.9755 58.0793 37.495 57.5812C36.9969 57.0947 36.6159 56.5086 36.3756 55.8583C36.1704 55.3308 35.9244 54.5337 35.86 53.0745C35.7895 51.4922 35.7721 51.0174 35.7721 47.0146C35.7721 43.0118 35.7895 42.5313 35.86 40.9549C35.9244 39.4898 36.1704 38.6986 36.3756 38.1712C36.6159 37.5206 36.9969 36.9288 37.501 36.448C37.9872 35.9499 38.5733 35.569 39.2239 35.3288C39.7513 35.1237 40.5484 34.8776 42.0076 34.813C43.59 34.7428 44.0648 34.7251 48.0673 34.7251C52.076 34.7251 52.5506 34.7428 54.1272 34.813C55.5923 34.8776 56.3835 35.1237 56.911 35.3288C57.5613 35.569 58.1533 35.9499 58.6339 36.448C59.132 36.9345 59.5129 37.5206 59.7533 38.1712C59.9584 38.6986 60.2045 39.4955 60.2691 40.9549C60.3394 42.5373 60.357 43.0118 60.357 47.0146C60.357 51.0174 60.3394 51.4862 60.2691 53.0686Z" fill="#163593"/>
<path d="M48.0556 39.2963C43.801 39.2963 40.349 42.7481 40.349 47.0029C40.349 51.2578 43.801 54.7095 48.0556 54.7095C52.3105 54.7095 55.7622 51.2578 55.7622 47.0029C55.7622 42.7481 52.3105 39.2963 48.0556 39.2963ZM48.0556 52.002C45.2955 52.002 43.0566 49.7633 43.0566 47.0029C43.0566 44.2425 45.2955 42.0039 48.0556 42.0039C50.816 42.0039 53.0547 44.2425 53.0547 47.0029C53.0547 49.7633 50.816 52.002 48.0556 52.002Z" fill="#163593"/>
<path d="M57.8663 38.9917C57.8663 39.9852 57.0607 40.7908 56.0669 40.7908C55.0734 40.7908 54.2678 39.9852 54.2678 38.9917C54.2678 37.9979 55.0734 37.1925 56.0669 37.1925C57.0607 37.1925 57.8663 37.9979 57.8663 38.9917Z" fill="#163593"/>
</g>
<g clip-path="url(#clip1)">
<path d="M62.9706 8.82008C62.9004 7.22607 62.6426 6.1302 62.2733 5.18061C61.8924 4.17264 61.3064 3.27022 60.5385 2.52002C59.7883 1.75816 58.88 1.16615 57.8837 0.79117C56.9286 0.421912 55.8384 0.16414 54.2444 0.0938599C52.6385 0.0176273 52.1287 0 48.0556 0C43.9826 0 43.4727 0.0176273 41.8728 0.0879078C40.2788 0.158188 39.1829 0.416188 38.2335 0.785218C37.2253 1.16615 36.3229 1.7522 35.5727 2.52002C34.8109 3.27022 34.2191 4.1786 33.8439 5.17488C33.4746 6.1302 33.2168 7.22011 33.1466 8.81413C33.0703 10.42 33.0527 10.9299 33.0527 15.0029C33.0527 19.076 33.0703 19.5858 33.1406 21.1858C33.2109 22.7798 33.4689 23.8757 33.8381 24.8253C34.2191 25.8332 34.8109 26.7356 35.5727 27.4858C36.3229 28.2477 37.2313 28.8397 38.2276 29.2147C39.1829 29.584 40.2728 29.8417 41.8671 29.912C43.4668 29.9825 43.9768 29.9999 48.0499 29.9999C52.123 29.9999 52.6328 29.9825 54.2327 29.912C55.8268 29.8417 56.9226 29.584 57.872 29.2147C59.8882 28.4352 61.4822 26.8412 62.2617 24.8253C62.6307 23.8699 62.8887 22.7798 62.959 21.1858C63.0293 19.5858 63.0469 19.076 63.0469 15.0029C63.0469 10.9299 63.0409 10.42 62.9706 8.82008ZM60.2691 21.0686C60.2045 22.5337 59.9584 23.3249 59.7533 23.8523C59.2492 25.1593 58.212 26.1965 56.905 26.7006C56.3776 26.9057 55.5807 27.1518 54.1213 27.2162C52.5389 27.2867 52.0644 27.3041 48.0616 27.3041C44.0588 27.3041 43.5783 27.2867 42.0017 27.2162C40.5365 27.1518 39.7454 26.9057 39.2179 26.7006C38.5675 26.4602 37.9755 26.0793 37.495 25.5812C36.9969 25.0947 36.6159 24.5086 36.3756 23.8583C36.1704 23.3308 35.9244 22.5337 35.86 21.0745C35.7895 19.4922 35.7721 19.0174 35.7721 15.0146C35.7721 11.0118 35.7895 10.5313 35.86 8.95492C35.9244 7.48979 36.1704 6.69862 36.3756 6.17117C36.6159 5.52056 36.9969 4.92879 37.501 4.44804C37.9872 3.9499 38.5733 3.56896 39.2239 3.32882C39.7513 3.1237 40.5484 2.87761 42.0076 2.81305C43.59 2.74277 44.0648 2.72514 48.0673 2.72514C52.076 2.72514 52.5506 2.74277 54.1272 2.81305C55.5923 2.87761 56.3835 3.1237 56.911 3.32882C57.5613 3.56896 58.1533 3.9499 58.6339 4.44804C59.132 4.93451 59.5129 5.52056 59.7533 6.17117C59.9584 6.69862 60.2045 7.49551 60.2691 8.95492C60.3394 10.5373 60.357 11.0118 60.357 15.0146C60.357 19.0174 60.3394 19.4862 60.2691 21.0686Z" fill="white"/>
<path d="M48.0556 7.29634C43.801 7.29634 40.349 10.7481 40.349 15.0029C40.349 19.2578 43.801 22.7095 48.0556 22.7095C52.3105 22.7095 55.7622 19.2578 55.7622 15.0029C55.7622 10.7481 52.3105 7.29634 48.0556 7.29634ZM48.0556 20.002C45.2955 20.002 43.0566 17.7633 43.0566 15.0029C43.0566 12.2425 45.2955 10.0039 48.0556 10.0039C50.816 10.0039 53.0547 12.2425 53.0547 15.0029C53.0547 17.7633 50.816 20.002 48.0556 20.002Z" fill="white"/>
<path d="M57.8663 6.99165C57.8663 7.9852 57.0607 8.79079 56.0669 8.79079C55.0734 8.79079 54.2678 7.9852 54.2678 6.99165C54.2678 5.99788 55.0734 5.19252 56.0669 5.19252C57.0607 5.19252 57.8663 5.99788 57.8663 6.99165Z" fill="white"/>
</g>
<g clip-path="url(#clip2)">
<path d="M76.7713 18.9763L76.275 25.9563C76.985 25.9563 77.2925 25.6513 77.6613 25.285L80.99 22.1038L87.8875 27.155C89.1525 27.86 90.0438 27.4888 90.385 25.9913L94.9125 4.77625L94.9137 4.775C95.315 2.905 94.2375 2.17375 93.005 2.6325L66.3925 12.8213C64.5763 13.5263 64.6038 14.5388 66.0838 14.9975L72.8875 17.1138L88.6912 7.225C89.435 6.7325 90.1112 7.005 89.555 7.4975L76.7713 18.9763Z" fill="white"/>
</g>
<g clip-path="url(#clip3)">
<path d="M76.7713 50.9763L76.275 57.9563C76.985 57.9563 77.2925 57.6513 77.6613 57.285L80.99 54.1038L87.8875 59.155C89.1525 59.86 90.0438 59.4888 90.385 57.9913L94.9125 36.7763L94.9137 36.775C95.315 34.905 94.2375 34.1738 93.005 34.6325L66.3925 44.8213C64.5763 45.5263 64.6038 46.5388 66.0838 46.9975L72.8875 49.1138L88.6912 39.225C89.435 38.7325 90.1112 39.005 89.555 39.4975L76.7713 50.9763Z" fill="#163593"/>
</g>
<path d="M125.468 7.97032C125.144 6.76542 124.194 5.81562 122.99 5.49118C120.789 4.88899 111.985 4.88899 111.985 4.88899C111.985 4.88899 103.182 4.88899 100.981 5.46835C99.7993 5.79245 98.8261 6.7656 98.502 7.97032C97.9229 10.171 97.9229 14.735 97.9229 14.735C97.9229 14.735 97.9229 19.3219 98.502 21.4996C98.8265 22.7044 99.7761 23.6542 100.981 23.9786C103.205 24.581 111.985 24.581 111.985 24.581C111.985 24.581 120.789 24.581 122.99 24.0016C124.194 23.6773 125.144 22.7275 125.469 21.5228C126.048 19.3219 126.048 14.7582 126.048 14.7582C126.048 14.7582 126.071 10.171 125.468 7.97032ZM109.182 18.9513V10.5186L116.503 14.735L109.182 18.9513Z" fill="white"/>
<path d="M125.468 39.9703C125.144 38.7654 124.194 37.8156 122.99 37.4912C120.789 36.889 111.985 36.889 111.985 36.889C111.985 36.889 103.182 36.889 100.981 37.4683C99.7993 37.7924 98.8261 38.7656 98.502 39.9703C97.9229 42.171 97.9229 46.735 97.9229 46.735C97.9229 46.735 97.9229 51.3219 98.502 53.4996C98.8265 54.7044 99.7761 55.6542 100.981 55.9786C103.205 56.581 111.985 56.581 111.985 56.581C111.985 56.581 120.789 56.581 122.99 56.0016C124.194 55.6773 125.144 54.7275 125.469 53.5228C126.048 51.3219 126.048 46.7582 126.048 46.7582C126.048 46.7582 126.071 42.171 125.468 39.9703ZM109.182 50.9513V42.5186L116.503 46.735L109.182 50.9513Z" fill="#163593"/>
<path d="M189.344 32H162.655C161.741 32.0005 161 32.7418 161 33.656V60.3455C161.001 61.2593 161.742 62.0002 162.656 62H177.025V50.3984H173.129V45.8574H177.025V42.5156C177.025 38.6401 179.391 36.5308 182.848 36.5308C184.504 36.5308 185.927 36.6542 186.342 36.7093V40.7598H183.958C182.077 40.7598 181.713 41.6535 181.713 42.9653V45.8574H186.21L185.624 50.3984H181.713V62H189.344C190.258 62.0002 191 61.2592 191 60.3447C191 60.3445 191 60.3444 191 60.344V33.6545C191 32.7407 190.258 31.9998 189.344 32Z" fill="#163593"/>
<path d="M189.344 3.39346e-08H162.655C161.741 0.000549353 161 0.74176 161 1.65601V28.3455C161.001 29.2593 161.742 30.0002 162.656 30H177.025V18.3984H173.129V13.8574H177.025V10.5156C177.025 6.64014 179.391 4.53076 182.848 4.53076C184.504 4.53076 185.927 4.65417 186.342 4.70929V8.75977H183.958C182.077 8.75977 181.713 9.6535 181.713 10.9653V13.8574H186.21L185.624 18.3984H181.713V30H189.344C190.258 30.0002 191 29.2592 191 28.3447C191 28.3445 191 28.3444 191 28.344V1.65454C191 0.740662 190.258 -0.000183072 189.344 3.39346e-08Z" fill="#4169E1"/>
<g clip-path="url(#clip4)">
<path d="M222.971 40.8201C222.9 39.2261 222.643 38.1302 222.273 37.1806C221.892 36.1726 221.306 35.2702 220.539 34.52C219.788 33.7582 218.88 33.1662 217.884 32.7912C216.929 32.4219 215.838 32.1641 214.244 32.0939C212.639 32.0176 212.129 32 208.056 32C203.983 32 203.473 32.0176 201.873 32.0879C200.279 32.1582 199.183 32.4162 198.234 32.7852C197.225 33.1662 196.323 33.7522 195.573 34.52C194.811 35.2702 194.219 36.1786 193.844 37.1749C193.475 38.1302 193.217 39.2201 193.147 40.8141C193.07 42.42 193.053 42.9299 193.053 47.0029C193.053 51.076 193.07 51.5858 193.141 53.1858C193.211 54.7798 193.469 55.8757 193.838 56.8253C194.219 57.8332 194.811 58.7356 195.573 59.4858C196.323 60.2477 197.231 60.8397 198.228 61.2147C199.183 61.584 200.273 61.8417 201.867 61.912C203.467 61.9825 203.977 61.9999 208.05 61.9999C212.123 61.9999 212.633 61.9825 214.233 61.912C215.827 61.8417 216.923 61.584 217.872 61.2147C219.888 60.4352 221.482 58.8412 222.262 56.8253C222.631 55.8699 222.889 54.7798 222.959 53.1858C223.029 51.5858 223.047 51.076 223.047 47.0029C223.047 42.9299 223.041 42.42 222.971 40.8201ZM220.269 53.0686C220.205 54.5337 219.958 55.3249 219.753 55.8523C219.249 57.1593 218.212 58.1965 216.905 58.7006C216.378 58.9057 215.581 59.1518 214.121 59.2162C212.539 59.2867 212.064 59.3041 208.062 59.3041C204.059 59.3041 203.578 59.2867 202.002 59.2162C200.537 59.1518 199.745 58.9057 199.218 58.7006C198.568 58.4602 197.976 58.0793 197.495 57.5812C196.997 57.0947 196.616 56.5086 196.376 55.8583C196.17 55.3308 195.924 54.5337 195.86 53.0745C195.79 51.4922 195.772 51.0174 195.772 47.0146C195.772 43.0118 195.79 42.5313 195.86 40.9549C195.924 39.4898 196.17 38.6986 196.376 38.1712C196.616 37.5206 196.997 36.9288 197.501 36.448C197.987 35.9499 198.573 35.569 199.224 35.3288C199.751 35.1237 200.548 34.8776 202.008 34.813C203.59 34.7428 204.065 34.7251 208.067 34.7251C212.076 34.7251 212.551 34.7428 214.127 34.813C215.592 34.8776 216.384 35.1237 216.911 35.3288C217.561 35.569 218.153 35.9499 218.634 36.448C219.132 36.9345 219.513 37.5206 219.753 38.1712C219.958 38.6986 220.205 39.4955 220.269 40.9549C220.339 42.5373 220.357 43.0118 220.357 47.0146C220.357 51.0174 220.339 51.4862 220.269 53.0686Z" fill="#163593"/>
<path d="M208.056 39.2963C203.801 39.2963 200.349 42.7481 200.349 47.0029C200.349 51.2578 203.801 54.7095 208.056 54.7095C212.31 54.7095 215.762 51.2578 215.762 47.0029C215.762 42.7481 212.31 39.2963 208.056 39.2963ZM208.056 52.002C205.295 52.002 203.057 49.7633 203.057 47.0029C203.057 44.2425 205.295 42.0039 208.056 42.0039C210.816 42.0039 213.055 44.2425 213.055 47.0029C213.055 49.7633 210.816 52.002 208.056 52.002Z" fill="#163593"/>
<path d="M217.866 38.9917C217.866 39.9852 217.061 40.7908 216.067 40.7908C215.073 40.7908 214.268 39.9852 214.268 38.9917C214.268 37.9979 215.073 37.1925 216.067 37.1925C217.061 37.1925 217.866 37.9979 217.866 38.9917Z" fill="#163593"/>
</g>
<g clip-path="url(#clip5)">
<path d="M222.971 8.82008C222.9 7.22607 222.643 6.1302 222.273 5.18061C221.892 4.17264 221.306 3.27022 220.539 2.52002C219.788 1.75816 218.88 1.16615 217.884 0.79117C216.929 0.421912 215.838 0.16414 214.244 0.0938599C212.639 0.0176273 212.129 0 208.056 0C203.983 0 203.473 0.0176273 201.873 0.0879078C200.279 0.158188 199.183 0.416188 198.234 0.785218C197.225 1.16615 196.323 1.7522 195.573 2.52002C194.811 3.27022 194.219 4.1786 193.844 5.17488C193.475 6.1302 193.217 7.22011 193.147 8.81413C193.07 10.42 193.053 10.9299 193.053 15.0029C193.053 19.076 193.07 19.5858 193.141 21.1858C193.211 22.7798 193.469 23.8757 193.838 24.8253C194.219 25.8332 194.811 26.7356 195.573 27.4858C196.323 28.2477 197.231 28.8397 198.228 29.2147C199.183 29.584 200.273 29.8417 201.867 29.912C203.467 29.9825 203.977 29.9999 208.05 29.9999C212.123 29.9999 212.633 29.9825 214.233 29.912C215.827 29.8417 216.923 29.584 217.872 29.2147C219.888 28.4352 221.482 26.8412 222.262 24.8253C222.631 23.8699 222.889 22.7798 222.959 21.1858C223.029 19.5858 223.047 19.076 223.047 15.0029C223.047 10.9299 223.041 10.42 222.971 8.82008ZM220.269 21.0686C220.205 22.5337 219.958 23.3249 219.753 23.8523C219.249 25.1593 218.212 26.1965 216.905 26.7006C216.378 26.9057 215.581 27.1518 214.121 27.2162C212.539 27.2867 212.064 27.3041 208.062 27.3041C204.059 27.3041 203.578 27.2867 202.002 27.2162C200.537 27.1518 199.745 26.9057 199.218 26.7006C198.568 26.4602 197.976 26.0793 197.495 25.5812C196.997 25.0947 196.616 24.5086 196.376 23.8583C196.17 23.3308 195.924 22.5337 195.86 21.0745C195.79 19.4922 195.772 19.0174 195.772 15.0146C195.772 11.0118 195.79 10.5313 195.86 8.95492C195.924 7.48979 196.17 6.69862 196.376 6.17117C196.616 5.52056 196.997 4.92879 197.501 4.44804C197.987 3.9499 198.573 3.56896 199.224 3.32882C199.751 3.1237 200.548 2.87761 202.008 2.81305C203.59 2.74277 204.065 2.72514 208.067 2.72514C212.076 2.72514 212.551 2.74277 214.127 2.81305C215.592 2.87761 216.384 3.1237 216.911 3.32882C217.561 3.56896 218.153 3.9499 218.634 4.44804C219.132 4.93451 219.513 5.52056 219.753 6.17117C219.958 6.69862 220.205 7.49551 220.269 8.95492C220.339 10.5373 220.357 11.0118 220.357 15.0146C220.357 19.0174 220.339 19.4862 220.269 21.0686Z" fill="#4169E1"/>
<path d="M208.056 7.29634C203.801 7.29634 200.349 10.7481 200.349 15.0029C200.349 19.2578 203.801 22.7095 208.056 22.7095C212.31 22.7095 215.762 19.2578 215.762 15.0029C215.762 10.7481 212.31 7.29634 208.056 7.29634ZM208.056 20.002C205.295 20.002 203.057 17.7633 203.057 15.0029C203.057 12.2425 205.295 10.0039 208.056 10.0039C210.816 10.0039 213.055 12.2425 213.055 15.0029C213.055 17.7633 210.816 20.002 208.056 20.002Z" fill="#4169E1"/>
<path d="M217.866 6.99165C217.866 7.9852 217.061 8.79079 216.067 8.79079C215.073 8.79079 214.268 7.9852 214.268 6.99165C214.268 5.99788 215.073 5.19252 216.067 5.19252C217.061 5.19252 217.866 5.99788 217.866 6.99165Z" fill="#4169E1"/>
</g>
<g clip-path="url(#clip6)">
<path d="M236.771 18.9763L236.275 25.9563C236.985 25.9563 237.292 25.6513 237.661 25.285L240.99 22.1038L247.887 27.155C249.152 27.86 250.044 27.4888 250.385 25.9913L254.912 4.77625L254.914 4.775C255.315 2.905 254.237 2.17375 253.005 2.6325L226.392 12.8213C224.576 13.5263 224.604 14.5388 226.084 14.9975L232.887 17.1138L248.691 7.225C249.435 6.7325 250.111 7.005 249.555 7.4975L236.771 18.9763Z" fill="#4169E1"/>
</g>
<g clip-path="url(#clip7)">
<path d="M236.771 50.9763L236.275 57.9563C236.985 57.9563 237.292 57.6513 237.661 57.285L240.99 54.1038L247.887 59.155C249.152 59.86 250.044 59.4888 250.385 57.9913L254.912 36.7763L254.914 36.775C255.315 34.905 254.237 34.1738 253.005 34.6325L226.392 44.8213C224.576 45.5263 224.604 46.5388 226.084 46.9975L232.887 49.1138L248.691 39.225C249.435 38.7325 250.111 39.005 249.555 39.4975L236.771 50.9763Z" fill="#163593"/>
</g>
<path d="M285.468 7.97032C285.144 6.76542 284.194 5.81562 282.99 5.49118C280.789 4.88899 271.985 4.88899 271.985 4.88899C271.985 4.88899 263.182 4.88899 260.981 5.46835C259.799 5.79245 258.826 6.7656 258.502 7.97032C257.923 10.171 257.923 14.735 257.923 14.735C257.923 14.735 257.923 19.3219 258.502 21.4996C258.826 22.7044 259.776 23.6542 260.981 23.9786C263.205 24.581 271.985 24.581 271.985 24.581C271.985 24.581 280.789 24.581 282.99 24.0016C284.194 23.6773 285.144 22.7275 285.469 21.5228C286.048 19.3219 286.048 14.7582 286.048 14.7582C286.048 14.7582 286.071 10.171 285.468 7.97032ZM269.182 18.9513V10.5186L276.503 14.735L269.182 18.9513Z" fill="#4169E1"/>
<path d="M285.468 39.9703C285.144 38.7654 284.194 37.8156 282.99 37.4912C280.789 36.889 271.985 36.889 271.985 36.889C271.985 36.889 263.182 36.889 260.981 37.4683C259.799 37.7924 258.826 38.7656 258.502 39.9703C257.923 42.171 257.923 46.735 257.923 46.735C257.923 46.735 257.923 51.3219 258.502 53.4996C258.826 54.7044 259.776 55.6542 260.981 55.9786C263.205 56.581 271.985 56.581 271.985 56.581C271.985 56.581 280.789 56.581 282.99 56.0016C284.194 55.6773 285.144 54.7275 285.469 53.5228C286.048 51.3219 286.048 46.7582 286.048 46.7582C286.048 46.7582 286.071 42.171 285.468 39.9703ZM269.182 50.9513V42.5186L276.503 46.735L269.182 50.9513Z" fill="#163593"/>
<path d="M129 20.2941H159V16.7647H129V20.2941ZM129 27.3529H159V23.8235H129V27.3529ZM129 13.2353H159V9.70589H129V13.2353ZM129 2.64706V6.17648H159V2.64706H129Z" fill="#4169E1"/>
<path d="M129 52.2941H159V48.7647H129V52.2941ZM129 59.3529H159V55.8235H129V59.3529ZM129 45.2353H159V41.7059H129V45.2353ZM129 34.6471V38.1765H159V34.6471H129Z" fill="#163593"/>
<path d="M304.707 15.0439L312.828 6.92326C313.011 6.74021 313.011 6.44344 312.828 6.26039C312.644 6.07734 312.348 6.07734 312.165 6.26039L304.044 14.381L295.923 6.26033C295.74 6.07729 295.443 6.07729 295.26 6.26033C295.077 6.44338 295.077 6.74016 295.26 6.9232L303.381 15.0439L295.26 23.1646C295.077 23.3477 295.077 23.6445 295.26 23.8276C295.352 23.9191 295.472 23.9648 295.592 23.9648C295.712 23.9648 295.832 23.9191 295.923 23.8276L304.044 15.7069L312.165 23.8276C312.256 23.9191 312.376 23.9648 312.496 23.9648C312.616 23.9648 312.736 23.9191 312.828 23.8276C313.011 23.6445 313.011 23.3477 312.828 23.1646L304.707 15.0439Z" fill="#4169E1"/>
<path d="M304.707 47.0439L312.828 38.9233C313.011 38.7402 313.011 38.4434 312.828 38.2604C312.644 38.0773 312.348 38.0773 312.165 38.2604L304.044 46.381L295.923 38.2603C295.74 38.0773 295.443 38.0773 295.26 38.2603C295.077 38.4434 295.077 38.7402 295.26 38.9232L303.381 47.0439L295.26 55.1646C295.077 55.3477 295.077 55.6445 295.26 55.8276C295.352 55.9191 295.472 55.9648 295.592 55.9648C295.712 55.9648 295.832 55.9191 295.923 55.8276L304.044 47.7069L312.165 55.8276C312.256 55.9191 312.376 55.9648 312.496 55.9648C312.616 55.9648 312.736 55.9191 312.828 55.8276C313.011 55.6445 313.011 55.3477 312.828 55.1646L304.707 47.0439Z" fill="#163593"/>
<defs>
<clipPath id="clip0">
<rect width="30" height="30" fill="white" transform="translate(33 32)"/>
</clipPath>
<clipPath id="clip1">
<rect width="30" height="30" fill="white" transform="translate(33)"/>
</clipPath>
<clipPath id="clip2">
<rect width="30" height="30" fill="white" transform="translate(65)"/>
</clipPath>
<clipPath id="clip3">
<rect width="30" height="30" fill="white" transform="translate(65 32)"/>
</clipPath>
<clipPath id="clip4">
<rect width="30" height="30" fill="white" transform="translate(193 32)"/>
</clipPath>
<clipPath id="clip5">
<rect width="30" height="30" fill="white" transform="translate(193)"/>
</clipPath>
<clipPath id="clip6">
<rect width="30" height="30" fill="white" transform="translate(225)"/>
</clipPath>
<clipPath id="clip7">
<rect width="30" height="30" fill="white" transform="translate(225 32)"/>
</clipPath>
</defs>
</svg>
